<svg width="475" height="224" viewBox="0 0 475 224" fill="none" xmlns="http://www.w3.org/2000/svg">
<g filter="url(#filter0_d_27_307)">
<path d="M16 36C16 22.7452 26.7452 12 40 12H430.66C446.124 12 458.66 24.536 458.66 40V181.17C458.66 193.32 448.81 203.17 436.66 203.17H42C27.6406 203.17 16 191.529 16 177.17V36Z" fill="url(#paint0_linear_27_307)"/>
<path d="M40 13H430.66C445.572 13.0001 457.66 25.0884 457.66 40V181.17C457.66 192.768 448.258 202.17 436.66 202.17H42C28.1929 202.17 17 190.977 17 177.17V36C17 23.2975 27.2975 13 40 13Z" stroke="#3A3A3A" stroke-width="2"/>
<g opacity="0.05">
<g clip-path="url(#clip0_27_307)">
<g clip-path="url(#clip1_27_307)">
<path d="M205.17 14H18V201.17H205.17V14Z" fill="black"/>
</g>
</g>
</g>
<path d="M72.432 46.344V46.984C72.0053 47.1333 71.536 47.464 71.024 47.976C70.512 48.488 70.0853 49.3093 69.744 50.44L63.952 69.096C63.824 69.096 63.6853 69.0853 63.536 69.064C63.408 69.064 63.2693 69.064 63.12 69.064C62.992 69.064 62.8533 69.064 62.704 69.064C62.576 69.0853 62.448 69.096 62.32 69.096L55.536 48.808C55.3013 48.0827 55.024 47.6027 54.704 47.368C54.4053 47.1333 54.096 47.0053 53.776 46.984V46.344C54.288 46.3653 54.9067 46.3867 55.632 46.408C56.3787 46.4293 57.1147 46.44 57.84 46.44C58.736 46.44 59.5787 46.4293 60.368 46.408C61.1573 46.3867 61.7973 46.3653 62.288 46.344V46.984C61.6267 47.0053 61.1147 47.08 60.752 47.208C60.3893 47.3147 60.176 47.56 60.112 47.944C60.0693 48.3067 60.176 48.8827 60.432 49.672L65.04 63.848L64.4 64.872L68.24 52.744C68.7093 51.2933 68.9227 50.152 68.88 49.32C68.8587 48.488 68.6133 47.9013 68.144 47.56C67.6747 47.1973 67.0027 47.0053 66.128 46.984V46.344C66.832 46.3653 67.4933 46.3867 68.112 46.408C68.752 46.4293 69.392 46.44 70.032 46.44C70.5227 46.44 70.96 46.4293 71.344 46.408C71.7493 46.3867 72.112 46.3653 72.432 46.344ZM49.776 46.344V46.984C49.2853 47.0267 48.944 47.1653 48.752 47.4C48.56 47.6347 48.4747 47.944 48.496 48.328C48.5387 48.6907 48.6453 49.1387 48.816 49.672L53.712 64.2L52.88 65.224L57.104 52.488L57.584 53.32L52.432 69.096C52.304 69.096 52.1653 69.0853 52.016 69.064C51.888 69.064 51.7493 69.064 51.6 69.064C51.472 69.064 51.3333 69.064 51.184 69.064C51.056 69.0853 50.928 69.096 50.8 69.096L43.76 49.032C43.4827 48.2427 43.1413 47.7093 42.736 47.432C42.352 47.1547 42 47.0053 41.68 46.984V46.344C42.2347 46.3653 42.9067 46.3867 43.696 46.408C44.4853 46.4293 45.2533 46.44 46 46.44C46.7893 46.44 47.5147 46.4293 48.176 46.408C48.8373 46.3867 49.3707 46.3653 49.776 46.344ZM78.6698 52.008C80.5471 52.008 82.0191 52.5733 83.0858 53.704C84.1524 54.8347 84.6858 56.6373 84.6858 59.112H73.9018L73.8698 58.504H80.9738C81.0164 57.4587 80.9524 56.4987 80.7818 55.624C80.6111 54.728 80.3338 54.0133 79.9498 53.48C79.5871 52.9467 79.1071 52.68 78.5098 52.68C77.6991 52.68 76.9951 53.16 76.3978 54.12C75.8004 55.0587 75.4271 56.6053 75.2778 58.76L75.4058 58.952C75.3631 59.2293 75.3311 59.528 75.3098 59.848C75.3098 60.168 75.3098 60.488 75.3098 60.808C75.3098 62.28 75.5231 63.496 75.9498 64.456C76.3764 65.416 76.9311 66.12 77.6138 66.568C78.2964 67.016 79.0004 67.24 79.7258 67.24C80.2164 67.24 80.7178 67.1653 81.2298 67.016C81.7418 66.8667 82.2431 66.5893 82.7338 66.184C83.2244 65.7787 83.6724 65.2027 84.0778 64.456L84.6858 64.712C84.4511 65.4587 84.0564 66.2053 83.5018 66.952C82.9684 67.6773 82.2751 68.2747 81.4218 68.744C80.5684 69.2133 79.5658 69.448 78.4138 69.448C76.9631 69.448 75.6831 69.128 74.5738 68.488C73.4644 67.848 72.6004 66.8987 71.9818 65.64C71.3631 64.36 71.0538 62.8027 71.0538 60.968C71.0538 59.0267 71.3738 57.3947 72.0138 56.072C72.6751 54.7493 73.5818 53.7467 74.7338 53.064C75.8858 52.36 77.1978 52.008 78.6698 52.008ZM96.938 52.008C98.602 52.008 99.9887 52.712 101.098 54.12C102.229 55.5067 102.794 57.6187 102.794 60.456C102.794 62.568 102.463 64.296 101.802 65.64C101.141 66.9627 100.255 67.9333 99.146 68.552C98.0367 69.1493 96.8313 69.448 95.53 69.448C94.6127 69.448 93.7273 69.256 92.874 68.872C92.042 68.4667 91.37 67.8373 90.858 66.984H91.402C91.8287 67.5813 92.3407 68.0293 92.938 68.328C93.5567 68.6053 94.1753 68.744 94.794 68.744C96.0527 68.744 96.9913 68.0933 97.61 66.792C98.2287 65.4693 98.538 63.4533 98.538 60.744C98.538 58.952 98.41 57.512 98.154 56.424C97.9193 55.3147 97.5673 54.5147 97.098 54.024C96.6287 53.512 96.042 53.256 95.338 53.256C94.506 53.256 93.738 53.608 93.034 54.312C92.3513 55.016 91.9567 56.0187 91.85 57.32L91.626 56.424C91.9673 55.016 92.6073 53.928 93.546 53.16C94.506 52.392 95.6367 52.008 96.938 52.008ZM91.978 43.944V68.04C91.53 68.0613 91.0713 68.1467 90.602 68.296C90.1327 68.424 89.6953 68.5947 89.29 68.808C88.8847 69 88.5327 69.2347 88.234 69.512L87.722 69.256C87.8287 68.9573 87.8927 68.6587 87.914 68.36C87.9353 68.0613 87.946 67.752 87.946 67.432V47.784C87.946 46.824 87.786 46.12 87.466 45.672C87.1673 45.2027 86.602 44.968 85.77 44.968V44.296C86.4527 44.36 87.114 44.392 87.754 44.392C88.5647 44.392 89.322 44.36 90.026 44.296C90.73 44.2107 91.3807 44.0933 91.978 43.944ZM110.734 52.008C111.63 52.008 112.398 52.136 113.038 52.392C113.678 52.648 114.147 52.872 114.446 53.064C115.171 53.5973 115.609 53.256 115.758 52.04H116.462C116.419 52.6587 116.387 53.3947 116.366 54.248C116.345 55.08 116.334 56.2 116.334 57.608H115.63C115.523 56.8187 115.321 56.0507 115.022 55.304C114.723 54.5573 114.286 53.9387 113.71 53.448C113.134 52.936 112.377 52.68 111.438 52.68C110.777 52.68 110.222 52.872 109.774 53.256C109.347 53.64 109.134 54.184 109.134 54.888C109.134 55.528 109.326 56.0933 109.71 56.584C110.094 57.0533 110.585 57.5013 111.182 57.928C111.801 58.3333 112.441 58.7813 113.102 59.272C113.87 59.784 114.553 60.3067 115.15 60.84C115.747 61.352 116.227 61.928 116.59 62.568C116.953 63.1867 117.134 63.9227 117.134 64.776C117.134 65.7573 116.857 66.6 116.302 67.304C115.769 67.9867 115.054 68.52 114.158 68.904C113.283 69.2667 112.313 69.448 111.246 69.448C110.67 69.448 110.147 69.3947 109.678 69.288C109.209 69.1813 108.793 69.0427 108.43 68.872C108.153 68.7227 107.897 68.584 107.662 68.456C107.449 68.328 107.225 68.2213 106.99 68.136C106.777 68.0293 106.585 68.072 106.414 68.264C106.265 68.456 106.147 68.776 106.062 69.224H105.358C105.401 68.5413 105.433 67.7093 105.454 66.728C105.475 65.7467 105.486 64.4453 105.486 62.824H106.19C106.339 63.9973 106.563 65.032 106.862 65.928C107.182 66.8027 107.641 67.496 108.238 68.008C108.835 68.4987 109.603 68.744 110.542 68.744C110.947 68.744 111.331 68.6587 111.694 68.488C112.078 68.3173 112.387 68.0507 112.622 67.688C112.878 67.3253 113.006 66.8347 113.006 66.216C113.006 65.2773 112.686 64.4987 112.046 63.88C111.406 63.2613 110.606 62.6 109.646 61.896C108.921 61.3627 108.238 60.84 107.598 60.328C106.979 59.816 106.467 59.24 106.062 58.6C105.678 57.96 105.486 57.2027 105.486 56.328C105.486 55.368 105.731 54.5787 106.222 53.96C106.713 53.32 107.353 52.84 108.142 52.52C108.953 52.1787 109.817 52.008 110.734 52.008ZM122.895 44.296C123.663 44.296 124.292 44.5093 124.783 44.936C125.274 45.3627 125.519 45.928 125.519 46.632C125.519 47.336 125.274 47.9013 124.783 48.328C124.292 48.7547 123.663 48.968 122.895 48.968C122.127 48.968 121.498 48.7547 121.007 48.328C120.516 47.9013 120.271 47.336 120.271 46.632C120.271 45.928 120.516 45.3627 121.007 44.936C121.498 44.5093 122.127 44.296 122.895 44.296ZM125.135 52.104V66.024C125.135 66.92 125.295 67.528 125.615 67.848C125.956 68.168 126.522 68.328 127.311 68.328V69C126.927 68.9787 126.34 68.9573 125.551 68.936C124.762 68.8933 123.962 68.872 123.151 68.872C122.362 68.872 121.562 68.8933 120.751 68.936C119.94 68.9573 119.332 68.9787 118.927 69V68.328C119.716 68.328 120.271 68.168 120.591 67.848C120.932 67.528 121.103 66.92 121.103 66.024V55.976C121.103 54.9947 120.943 54.28 120.623 53.832C120.324 53.3627 119.759 53.128 118.927 53.128V52.456C119.61 52.52 120.271 52.552 120.911 52.552C121.7 52.552 122.447 52.52 123.151 52.456C123.876 52.3707 124.538 52.2533 125.135 52.104ZM134.499 47.208V52.488H138.595V53.128H134.499V65.864C134.499 66.632 134.637 67.176 134.915 67.496C135.192 67.816 135.587 67.976 136.099 67.976C136.589 67.976 137.037 67.7947 137.443 67.432C137.848 67.048 138.211 66.4187 138.531 65.544L139.107 65.8C138.787 66.8453 138.285 67.72 137.603 68.424C136.941 69.1067 136.003 69.448 134.787 69.448C134.061 69.448 133.443 69.352 132.931 69.16C132.44 68.9893 132.013 68.7333 131.651 68.392C131.181 67.9013 130.861 67.3147 130.691 66.632C130.541 65.9493 130.467 65.0427 130.467 63.912V53.128H127.651V52.488H130.467V48.04C131.235 48.0187 131.949 47.944 132.611 47.816C133.272 47.688 133.901 47.4853 134.499 47.208ZM147.382 52.008C149.26 52.008 150.732 52.5733 151.798 53.704C152.865 54.8347 153.398 56.6373 153.398 59.112H142.614L142.582 58.504H149.686C149.729 57.4587 149.665 56.4987 149.494 55.624C149.324 54.728 149.046 54.0133 148.662 53.48C148.3 52.9467 147.82 52.68 147.222 52.68C146.412 52.68 145.708 53.16 145.11 54.12C144.513 55.0587 144.14 56.6053 143.99 58.76L144.118 58.952C144.076 59.2293 144.044 59.528 144.022 59.848C144.022 60.168 144.022 60.488 144.022 60.808C144.022 62.28 144.236 63.496 144.662 64.456C145.089 65.416 145.644 66.12 146.326 66.568C147.009 67.016 147.713 67.24 148.438 67.24C148.929 67.24 149.43 67.1653 149.942 67.016C150.454 66.8667 150.956 66.5893 151.446 66.184C151.937 65.7787 152.385 65.2027 152.79 64.456L153.398 64.712C153.164 65.4587 152.769 66.2053 152.214 66.952C151.681 67.6773 150.988 68.2747 150.134 68.744C149.281 69.2133 148.278 69.448 147.126 69.448C145.676 69.448 144.396 69.128 143.286 68.488C142.177 67.848 141.313 66.8987 140.694 65.64C140.076 64.36 139.766 62.8027 139.766 60.968C139.766 59.0267 140.086 57.3947 140.726 56.072C141.388 54.7493 142.294 53.7467 143.446 53.064C144.598 52.36 145.91 52.008 147.382 52.008ZM162.811 46.344C163.344 46.3653 164.027 46.3867 164.859 46.408C165.691 46.4293 166.523 46.44 167.355 46.44C168.4 46.44 169.392 46.4293 170.331 46.408C171.269 46.3867 171.931 46.376 172.315 46.376C174.235 46.376 175.813 46.6107 177.051 47.08C178.309 47.528 179.248 48.168 179.867 49C180.485 49.832 180.795 50.8133 180.795 51.944C180.795 52.648 180.656 53.3733 180.379 54.12C180.101 54.8453 179.621 55.5173 178.939 56.136C178.256 56.7547 177.317 57.2667 176.123 57.672C174.949 58.056 173.445 58.248 171.611 58.248H168.539V57.608H171.291C172.635 57.608 173.659 57.3733 174.363 56.904C175.088 56.4133 175.568 55.7733 175.803 54.984C176.059 54.1733 176.187 53.2773 176.187 52.296C176.187 50.6107 175.856 49.3093 175.195 48.392C174.533 47.4533 173.392 46.984 171.771 46.984C170.896 46.984 170.32 47.1653 170.043 47.528C169.787 47.8907 169.659 48.6267 169.659 49.736V65.608C169.659 66.376 169.723 66.952 169.851 67.336C169.979 67.72 170.213 67.976 170.555 68.104C170.917 68.232 171.44 68.3173 172.123 68.36V69C171.589 68.9573 170.907 68.936 170.075 68.936C169.243 68.9147 168.4 68.904 167.547 68.904C166.587 68.904 165.691 68.9147 164.859 68.936C164.027 68.936 163.344 68.9573 162.811 69V68.36C163.515 68.3173 164.037 68.232 164.379 68.104C164.741 67.976 164.976 67.72 165.083 67.336C165.211 66.952 165.275 66.376 165.275 65.608V49.736C165.275 48.9467 165.211 48.3707 165.083 48.008C164.976 47.624 164.741 47.368 164.379 47.24C164.037 47.0907 163.515 47.0053 162.811 46.984V46.344ZM168.539 57.704C169.541 57.7467 170.373 57.8 171.035 57.864C171.717 57.9067 172.293 57.9493 172.763 57.992C173.253 58.0347 173.691 58.088 174.075 58.152C175.845 58.3227 177.147 58.7387 177.979 59.4C178.832 60.04 179.397 61.0213 179.675 62.344L180.411 65.64C180.603 66.5147 180.805 67.144 181.019 67.528C181.253 67.8907 181.584 68.0613 182.011 68.04C182.309 68.04 182.565 67.9653 182.779 67.816C182.992 67.6453 183.205 67.4213 183.419 67.144L183.867 67.528C183.333 68.1893 182.768 68.68 182.171 69C181.573 69.2987 180.816 69.448 179.899 69.448C178.875 69.448 178.011 69.2133 177.307 68.744C176.603 68.2533 176.123 67.336 175.867 65.992L175.259 62.792C175.088 61.896 174.885 61.1067 174.651 60.424C174.437 59.7413 174.139 59.208 173.755 58.824C173.371 58.44 172.805 58.248 172.059 58.248H168.603L168.539 57.704ZM191.891 52.008C193.768 52.008 195.24 52.5733 196.307 53.704C197.374 54.8347 197.907 56.6373 197.907 59.112H187.123L187.091 58.504H194.195C194.238 57.4587 194.174 56.4987 194.003 55.624C193.832 54.728 193.555 54.0133 193.171 53.48C192.808 52.9467 192.328 52.68 191.731 52.68C190.92 52.68 190.216 53.16 189.619 54.12C189.022 55.0587 188.648 56.6053 188.499 58.76L188.627 58.952C188.584 59.2293 188.552 59.528 188.531 59.848C188.531 60.168 188.531 60.488 188.531 60.808C188.531 62.28 188.744 63.496 189.171 64.456C189.598 65.416 190.152 66.12 190.835 66.568C191.518 67.016 192.222 67.24 192.947 67.24C193.438 67.24 193.939 67.1653 194.451 67.016C194.963 66.8667 195.464 66.5893 195.955 66.184C196.446 65.7787 196.894 65.2027 197.299 64.456L197.907 64.712C197.672 65.4587 197.278 66.2053 196.723 66.952C196.19 67.6773 195.496 68.2747 194.643 68.744C193.79 69.2133 192.787 69.448 191.635 69.448C190.184 69.448 188.904 69.128 187.795 68.488C186.686 67.848 185.822 66.8987 185.203 65.64C184.584 64.36 184.275 62.8027 184.275 60.968C184.275 59.0267 184.595 57.3947 185.235 56.072C185.896 54.7493 186.803 53.7467 187.955 53.064C189.107 52.36 190.419 52.008 191.891 52.008ZM214.991 43.944V65.512C214.991 66.472 215.151 67.1867 215.471 67.656C215.791 68.104 216.357 68.328 217.167 68.328V69C216.506 68.936 215.845 68.904 215.183 68.904C214.394 68.904 213.647 68.936 212.943 69C212.239 69.064 211.578 69.1813 210.959 69.352V47.784C210.959 46.824 210.799 46.12 210.479 45.672C210.181 45.2027 209.615 44.968 208.783 44.968V44.296C209.466 44.36 210.127 44.392 210.767 44.392C211.578 44.392 212.335 44.36 213.039 44.296C213.743 44.2107 214.394 44.0933 214.991 43.944ZM207.343 52.008C208.282 52.008 209.125 52.1893 209.871 52.552C210.618 52.9147 211.173 53.5227 211.535 54.376L211.151 54.696C210.853 54.0773 210.447 53.6187 209.935 53.32C209.423 53.0213 208.847 52.872 208.207 52.872C207.055 52.872 206.127 53.5227 205.423 54.824C204.741 56.104 204.399 58.0773 204.399 60.744C204.399 62.536 204.538 63.9867 204.815 65.096C205.093 66.184 205.487 66.9733 205.999 67.464C206.533 67.9547 207.162 68.2 207.887 68.2C208.655 68.2 209.349 67.8907 209.967 67.272C210.586 66.632 210.949 65.7253 211.055 64.552L211.279 65.448C211.002 66.7493 210.479 67.7413 209.711 68.424C208.943 69.1067 207.93 69.448 206.671 69.448C205.391 69.448 204.25 69.1387 203.247 68.52C202.266 67.88 201.498 66.92 200.943 65.64C200.41 64.3387 200.143 62.696 200.143 60.712C200.143 58.7707 200.463 57.16 201.103 55.88C201.743 54.5787 202.607 53.608 203.695 52.968C204.783 52.328 205.999 52.008 207.343 52.008ZM226.345 52.008C228.222 52.008 229.694 52.5733 230.761 53.704C231.827 54.8347 232.361 56.6373 232.361 59.112H221.577L221.545 58.504H228.649C228.691 57.4587 228.627 56.4987 228.457 55.624C228.286 54.728 228.009 54.0133 227.625 53.48C227.262 52.9467 226.782 52.68 226.185 52.68C225.374 52.68 224.67 53.16 224.073 54.12C223.475 55.0587 223.102 56.6053 222.953 58.76L223.081 58.952C223.038 59.2293 223.006 59.528 222.985 59.848C222.985 60.168 222.985 60.488 222.985 60.808C222.985 62.28 223.198 63.496 223.625 64.456C224.051 65.416 224.606 66.12 225.289 66.568C225.971 67.016 226.675 67.24 227.401 67.24C227.891 67.24 228.393 67.1653 228.905 67.016C229.417 66.8667 229.918 66.5893 230.409 66.184C230.899 65.7787 231.347 65.2027 231.753 64.456L232.361 64.712C232.126 65.4587 231.731 66.2053 231.177 66.952C230.643 67.6773 229.95 68.2747 229.097 68.744C228.243 69.2133 227.241 69.448 226.089 69.448C224.638 69.448 223.358 69.128 222.249 68.488C221.139 67.848 220.275 66.8987 219.657 65.64C219.038 64.36 218.729 62.8027 218.729 60.968C218.729 59.0267 219.049 57.3947 219.689 56.072C220.35 54.7493 221.257 53.7467 222.409 53.064C223.561 52.36 224.873 52.008 226.345 52.008ZM240.229 52.008C241.125 52.008 241.893 52.136 242.533 52.392C243.173 52.648 243.642 52.872 243.941 53.064C244.666 53.5973 245.104 53.256 245.253 52.04H245.957C245.914 52.6587 245.882 53.3947 245.861 54.248C245.84 55.08 245.829 56.2 245.829 57.608H245.125C245.018 56.8187 244.816 56.0507 244.517 55.304C244.218 54.5573 243.781 53.9387 243.205 53.448C242.629 52.936 241.872 52.68 240.933 52.68C240.272 52.68 239.717 52.872 239.269 53.256C238.842 53.64 238.629 54.184 238.629 54.888C238.629 55.528 238.821 56.0933 239.205 56.584C239.589 57.0533 240.08 57.5013 240.677 57.928C241.296 58.3333 241.936 58.7813 242.597 59.272C243.365 59.784 244.048 60.3067 244.645 60.84C245.242 61.352 245.722 61.928 246.085 62.568C246.448 63.1867 246.629 63.9227 246.629 64.776C246.629 65.7573 246.352 66.6 245.797 67.304C245.264 67.9867 244.549 68.52 243.653 68.904C242.778 69.2667 241.808 69.448 240.741 69.448C240.165 69.448 239.642 69.3947 239.173 69.288C238.704 69.1813 238.288 69.0427 237.925 68.872C237.648 68.7227 237.392 68.584 237.157 68.456C236.944 68.328 236.72 68.2213 236.485 68.136C236.272 68.0293 236.08 68.072 235.909 68.264C235.76 68.456 235.642 68.776 235.557 69.224H234.853C234.896 68.5413 234.928 67.7093 234.949 66.728C234.97 65.7467 234.981 64.4453 234.981 62.824H235.685C235.834 63.9973 236.058 65.032 236.357 65.928C236.677 66.8027 237.136 67.496 237.733 68.008C238.33 68.4987 239.098 68.744 240.037 68.744C240.442 68.744 240.826 68.6587 241.189 68.488C241.573 68.3173 241.882 68.0507 242.117 67.688C242.373 67.3253 242.501 66.8347 242.501 66.216C242.501 65.2773 242.181 64.4987 241.541 63.88C240.901 63.2613 240.101 62.6 239.141 61.896C238.416 61.3627 237.733 60.84 237.093 60.328C236.474 59.816 235.962 59.24 235.557 58.6C235.173 57.96 234.981 57.2027 234.981 56.328C234.981 55.368 235.226 54.5787 235.717 53.96C236.208 53.32 236.848 52.84 237.637 52.52C238.448 52.1787 239.312 52.008 240.229 52.008ZM252.39 44.296C253.158 44.296 253.787 44.5093 254.278 44.936C254.769 45.3627 255.014 45.928 255.014 46.632C255.014 47.336 254.769 47.9013 254.278 48.328C253.787 48.7547 253.158 48.968 252.39 48.968C251.622 48.968 250.993 48.7547 250.502 48.328C250.011 47.9013 249.766 47.336 249.766 46.632C249.766 45.928 250.011 45.3627 250.502 44.936C250.993 44.5093 251.622 44.296 252.39 44.296ZM254.63 52.104V66.024C254.63 66.92 254.79 67.528 255.11 67.848C255.451 68.168 256.017 68.328 256.806 68.328V69C256.422 68.9787 255.835 68.9573 255.046 68.936C254.257 68.8933 253.457 68.872 252.646 68.872C251.857 68.872 251.057 68.8933 250.246 68.936C249.435 68.9573 248.827 68.9787 248.422 69V68.328C249.211 68.328 249.766 68.168 250.086 67.848C250.427 67.528 250.598 66.92 250.598 66.024V55.976C250.598 54.9947 250.438 54.28 250.118 53.832C249.819 53.3627 249.254 53.128 248.422 53.128V52.456C249.105 52.52 249.766 52.552 250.406 52.552C251.195 52.552 251.942 52.52 252.646 52.456C253.371 52.3707 254.033 52.2533 254.63 52.104ZM264.026 75.016C262.767 75.016 261.626 74.8987 260.602 74.664C259.578 74.4293 258.767 74.0773 258.17 73.608C257.572 73.16 257.274 72.584 257.274 71.88C257.274 71.1973 257.572 70.5893 258.17 70.056C258.767 69.5227 259.642 69.1173 260.794 68.84L261.018 69.352C260.612 69.5867 260.303 69.9067 260.09 70.312C259.876 70.7173 259.77 71.144 259.77 71.592C259.77 72.5093 260.186 73.2133 261.018 73.704C261.871 74.216 263.002 74.472 264.41 74.472C265.37 74.472 266.255 74.344 267.066 74.088C267.876 73.832 268.527 73.4373 269.018 72.904C269.508 72.3707 269.754 71.7093 269.754 70.92C269.754 70.2587 269.508 69.704 269.018 69.256C268.548 68.808 267.599 68.584 266.17 68.584H264.058C263.268 68.584 262.543 68.4987 261.882 68.328C261.242 68.1573 260.73 67.88 260.346 67.496C259.962 67.112 259.77 66.5787 259.77 65.896C259.77 65.064 260.111 64.3173 260.794 63.656C261.476 62.9733 262.543 62.312 263.994 61.672L264.346 61.96C263.812 62.2373 263.332 62.536 262.906 62.856C262.5 63.176 262.298 63.5813 262.298 64.072C262.298 64.7547 262.767 65.096 263.706 65.096H267.322C268.431 65.096 269.412 65.2347 270.266 65.512C271.14 65.7893 271.834 66.2267 272.346 66.824C272.858 67.4213 273.114 68.2107 273.114 69.192C273.114 70.216 272.783 71.1653 272.122 72.04C271.46 72.936 270.458 73.6507 269.114 74.184C267.791 74.7387 266.095 75.016 264.026 75.016ZM264.314 62.184C263.162 62.184 262.116 62.0133 261.178 61.672C260.26 61.3093 259.535 60.7547 259.002 60.008C258.468 59.24 258.202 58.2693 258.202 57.096C258.202 55.9227 258.468 54.9627 259.002 54.216C259.535 53.4693 260.26 52.9147 261.178 52.552C262.116 52.1893 263.162 52.008 264.314 52.008C265.487 52.008 266.532 52.1893 267.45 52.552C268.367 52.9147 269.092 53.4693 269.626 54.216C270.159 54.9627 270.426 55.9227 270.426 57.096C270.426 58.2693 270.159 59.24 269.626 60.008C269.092 60.7547 268.367 61.3093 267.45 61.672C266.532 62.0133 265.487 62.184 264.314 62.184ZM264.314 61.608C264.954 61.608 265.455 61.288 265.818 60.648C266.202 59.9867 266.394 58.8027 266.394 57.096C266.394 55.3893 266.202 54.216 265.818 53.576C265.455 52.9147 264.954 52.584 264.314 52.584C263.674 52.584 263.162 52.9147 262.778 53.576C262.415 54.216 262.234 55.3893 262.234 57.096C262.234 58.8027 262.415 59.9867 262.778 60.648C263.162 61.288 263.674 61.608 264.314 61.608ZM269.146 54.728L268.538 54.504C268.858 53.7147 269.38 53.0533 270.106 52.52C270.831 51.9653 271.599 51.688 272.41 51.688C273.028 51.688 273.508 51.8587 273.85 52.2C274.212 52.5413 274.394 53.0213 274.394 53.64C274.394 54.28 274.223 54.7493 273.882 55.048C273.54 55.3467 273.167 55.496 272.762 55.496C272.399 55.496 272.068 55.3787 271.77 55.144C271.471 54.888 271.3 54.504 271.258 53.992C271.215 53.4587 271.386 52.7973 271.77 52.008L272.09 52.136C271.258 52.456 270.639 52.808 270.234 53.192C269.828 53.576 269.466 54.088 269.146 54.728ZM286.551 52.008C287.447 52.008 288.162 52.1253 288.695 52.36C289.25 52.5947 289.698 52.8933 290.039 53.256C290.423 53.6613 290.69 54.184 290.839 54.824C291.01 55.464 291.095 56.328 291.095 57.416V66.024C291.095 66.92 291.255 67.528 291.575 67.848C291.917 68.168 292.482 68.328 293.271 68.328V69C292.887 68.9787 292.29 68.9573 291.479 68.936C290.69 68.8933 289.922 68.872 289.175 68.872C288.386 68.872 287.618 68.8933 286.871 68.936C286.125 68.9573 285.57 68.9787 285.207 69V68.328C285.89 68.328 286.37 68.168 286.647 67.848C286.925 67.528 287.063 66.92 287.063 66.024V56.328C287.063 55.752 287.01 55.24 286.903 54.792C286.797 54.3227 286.583 53.96 286.263 53.704C285.943 53.4267 285.485 53.288 284.887 53.288C284.183 53.288 283.554 53.48 282.999 53.864C282.466 54.248 282.039 54.7813 281.719 55.464C281.421 56.1253 281.271 56.872 281.271 57.704V66.024C281.271 66.92 281.41 67.528 281.687 67.848C281.965 68.168 282.445 68.328 283.127 68.328V69C282.765 68.9787 282.221 68.9573 281.495 68.936C280.77 68.8933 280.034 68.872 279.287 68.872C278.498 68.872 277.698 68.8933 276.887 68.936C276.077 68.9573 275.469 68.9787 275.063 69V68.328C275.853 68.328 276.407 68.168 276.727 67.848C277.069 67.528 277.239 66.92 277.239 66.024V55.944C277.239 54.984 277.079 54.28 276.759 53.832C276.461 53.3627 275.895 53.128 275.063 53.128V52.456C275.746 52.52 276.407 52.552 277.047 52.552C277.837 52.552 278.583 52.52 279.287 52.456C280.013 52.3707 280.674 52.2533 281.271 52.104V55.304C281.805 54.088 282.541 53.2347 283.479 52.744C284.418 52.2533 285.442 52.008 286.551 52.008Z" fill="#F4F4F4"/>
<g clip-path="url(#clip2_27_307)">
<path d="M42 98.2436C42 95.0107 44.6208 92.3899 47.8537 92.3899H426.822C430.046 92.3899 432.66 95.0036 432.66 98.2277C432.66 101.631 429.901 104.39 426.498 104.39H48.1463C44.7518 104.39 42 101.638 42 98.2436Z" fill="#3A3A3A"/>
<g filter="url(#filter1_d_27_307)">
<path d="M42 98.2436C42 95.0107 44.6208 92.3899 47.8537 92.3899H290.082C293.306 92.3899 295.92 95.0036 295.92 98.2277C295.92 101.631 293.161 104.39 289.758 104.39H48.1464C44.7518 104.39 42 101.638 42 98.2436Z" fill="url(#paint1_linear_27_307)"/>
</g>
</g>
<path d="M48.54 139.985H42.756V138.701L45.492 136.313C45.924 135.929 46.256 135.565 46.488 135.221C46.728 134.877 46.848 134.513 46.848 134.129V133.997C46.848 133.557 46.728 133.221 46.488 132.989C46.248 132.749 45.9 132.629 45.444 132.629C44.98 132.629 44.62 132.753 44.364 133.001C44.116 133.249 43.936 133.565 43.824 133.949L42.648 133.505C42.728 133.241 42.844 132.989 42.996 132.749C43.148 132.501 43.34 132.281 43.572 132.089C43.812 131.897 44.092 131.745 44.412 131.633C44.74 131.521 45.116 131.465 45.54 131.465C45.972 131.465 46.356 131.529 46.692 131.657C47.036 131.777 47.324 131.945 47.556 132.161C47.788 132.377 47.964 132.637 48.084 132.941C48.204 133.237 48.264 133.565 48.264 133.925C48.264 134.261 48.212 134.573 48.108 134.861C48.012 135.141 47.872 135.413 47.688 135.677C47.512 135.933 47.3 136.181 47.052 136.421C46.804 136.661 46.532 136.901 46.236 137.141L44.208 138.845H48.54V139.985ZM53.5393 139.985V138.353H49.5553V137.201L53.0593 131.609H54.8233V137.297H55.9993V138.353H54.8233V139.985H53.5393ZM50.6953 137.297H53.5393V132.845H53.4673L50.6953 137.297ZM67.5579 139.985C67.0139 139.985 66.6139 139.841 66.3579 139.553C66.1019 139.257 65.9739 138.877 65.9739 138.413V134.849H64.0659V133.793H65.4219C65.6539 133.793 65.8179 133.749 65.9139 133.661C66.0099 133.565 66.0579 133.397 66.0579 133.157V131.609H67.2819V133.793H69.9219V134.849H67.2819V138.929H69.9219V139.985H67.5579ZM76.6853 139.985C76.3093 139.985 76.0253 139.889 75.8333 139.697C75.6493 139.505 75.5373 139.253 75.4973 138.941H75.4373C75.3173 139.317 75.0973 139.609 74.7773 139.817C74.4653 140.025 74.0653 140.129 73.5773 140.129C72.9453 140.129 72.4413 139.965 72.0653 139.637C71.6893 139.301 71.5013 138.841 71.5013 138.257C71.5013 137.657 71.7213 137.201 72.1613 136.889C72.6093 136.569 73.2933 136.409 74.2133 136.409H75.4013V135.929C75.4013 135.089 74.9573 134.669 74.0693 134.669C73.6693 134.669 73.3453 134.749 73.0973 134.909C72.8493 135.061 72.6413 135.265 72.4733 135.521L71.6933 134.885C71.8693 134.549 72.1653 134.261 72.5813 134.021C72.9973 133.773 73.5333 133.649 74.1893 133.649C74.9733 133.649 75.5893 133.837 76.0373 134.213C76.4853 134.589 76.7093 135.133 76.7093 135.845V138.953H77.4893V139.985H76.6853ZM73.9492 139.169C74.3733 139.169 74.7213 139.073 74.9933 138.881C75.2653 138.689 75.4013 138.441 75.4013 138.137V137.237H74.2373C73.2933 137.237 72.8213 137.521 72.8213 138.089V138.329C72.8213 138.609 72.9213 138.821 73.1213 138.965C73.3213 139.101 73.5973 139.169 73.9492 139.169ZM81.5886 140.129C80.9166 140.129 80.3366 140.021 79.8486 139.805C79.3686 139.589 78.9806 139.301 78.6846 138.941L79.4886 138.221C79.7606 138.517 80.0646 138.745 80.4006 138.905C80.7446 139.057 81.1486 139.133 81.6126 139.133C82.0366 139.133 82.3766 139.061 82.6326 138.917C82.8966 138.773 83.0286 138.549 83.0286 138.245C83.0286 138.117 83.0046 138.009 82.9566 137.921C82.9086 137.833 82.8406 137.761 82.7526 137.705C82.6646 137.649 82.5606 137.605 82.4406 137.573C82.3286 137.541 82.2086 137.517 82.0806 137.501L81.0966 137.345C80.8566 137.313 80.6126 137.261 80.3646 137.189C80.1166 137.117 79.8926 137.017 79.6926 136.889C79.5006 136.753 79.3406 136.581 79.2126 136.373C79.0926 136.165 79.0326 135.901 79.0326 135.581C79.0326 134.949 79.2726 134.469 79.7526 134.141C80.2406 133.813 80.8806 133.649 81.6726 133.649C82.2486 133.649 82.7446 133.737 83.1606 133.913C83.5846 134.081 83.9366 134.317 84.2166 134.621L83.4846 135.389C83.3246 135.205 83.0966 135.037 82.8006 134.885C82.5046 134.725 82.1126 134.645 81.6246 134.645C80.7526 134.645 80.3166 134.921 80.3166 135.473C80.3166 135.737 80.4086 135.921 80.5926 136.025C80.7846 136.121 81.0086 136.185 81.2646 136.217L82.2486 136.373C82.4966 136.413 82.7406 136.465 82.9806 136.529C83.2286 136.593 83.4486 136.693 83.6406 136.829C83.8406 136.957 84.0006 137.125 84.1206 137.333C84.2486 137.541 84.3126 137.805 84.3126 138.125C84.3126 138.749 84.0686 139.241 83.5806 139.601C83.1006 139.953 82.4366 140.129 81.5886 140.129ZM86.2279 131.105H87.5359V136.469H87.5959L88.5679 135.473L90.3079 133.793H91.8559L89.3479 136.229L92.1319 139.985H90.5599L88.3999 136.973L87.5359 137.777V139.985H86.2279V131.105ZM95.9792 140.129C95.3072 140.129 94.7272 140.021 94.2392 139.805C93.7592 139.589 93.3712 139.301 93.0752 138.941L93.8792 138.221C94.1512 138.517 94.4552 138.745 94.7912 138.905C95.1352 139.057 95.5392 139.133 96.0032 139.133C96.4272 139.133 96.7672 139.061 97.0232 138.917C97.2872 138.773 97.4192 138.549 97.4192 138.245C97.4192 138.117 97.3952 138.009 97.3472 137.921C97.2992 137.833 97.2312 137.761 97.1432 137.705C97.0552 137.649 96.9512 137.605 96.8312 137.573C96.7192 137.541 96.5992 137.517 96.4712 137.501L95.4872 137.345C95.2472 137.313 95.0032 137.261 94.7552 137.189C94.5072 137.117 94.2832 137.017 94.0832 136.889C93.8912 136.753 93.7312 136.581 93.6032 136.373C93.4832 136.165 93.4232 135.901 93.4232 135.581C93.4232 134.949 93.6632 134.469 94.1432 134.141C94.6312 133.813 95.2712 133.649 96.0632 133.649C96.6392 133.649 97.1352 133.737 97.5512 133.913C97.9752 134.081 98.3272 134.317 98.6072 134.621L97.8752 135.389C97.7152 135.205 97.4872 135.037 97.1912 134.885C96.8952 134.725 96.5032 134.645 96.0152 134.645C95.1432 134.645 94.7072 134.921 94.7072 135.473C94.7072 135.737 94.7992 135.921 94.9832 136.025C95.1752 136.121 95.3992 136.185 95.6552 136.217L96.6392 136.373C96.8872 136.413 97.1312 136.465 97.3712 136.529C97.6192 136.593 97.8392 136.693 98.0312 136.829C98.2312 136.957 98.3912 137.125 98.5112 137.333C98.6392 137.541 98.7032 137.805 98.7032 138.125C98.7032 138.749 98.4592 139.241 97.9712 139.601C97.4912 139.953 96.8272 140.129 95.9792 140.129Z" fill="#999999"/>
<rect x="354.66" y="120.39" width="78" height="31.19" rx="15.595" fill="#6DD47E" fill-opacity="0.2"/>
<path d="M372.932 140.034C372.38 140.034 371.88 139.942 371.432 139.758C370.984 139.574 370.6 139.298 370.28 138.93C369.968 138.562 369.724 138.11 369.548 137.574C369.372 137.038 369.284 136.414 369.284 135.702C369.284 134.998 369.372 134.378 369.548 133.842C369.724 133.298 369.968 132.842 370.28 132.474C370.6 132.106 370.984 131.83 371.432 131.646C371.88 131.462 372.38 131.37 372.932 131.37C373.484 131.37 373.984 131.462 374.432 131.646C374.88 131.83 375.264 132.106 375.584 132.474C375.904 132.842 376.148 133.298 376.316 133.842C376.492 134.378 376.58 134.998 376.58 135.702C376.58 136.414 376.492 137.038 376.316 137.574C376.148 138.11 375.904 138.562 375.584 138.93C375.264 139.298 374.88 139.574 374.432 139.758C373.984 139.942 373.484 140.034 372.932 140.034ZM372.932 138.63C373.532 138.63 374.008 138.43 374.36 138.03C374.72 137.63 374.9 137.07 374.9 136.35V135.054C374.9 134.334 374.72 133.774 374.36 133.374C374.008 132.974 373.532 132.774 372.932 132.774C372.332 132.774 371.852 132.974 371.492 133.374C371.14 133.774 370.964 134.334 370.964 135.054V136.35C370.964 137.07 371.14 137.63 371.492 138.03C371.852 138.43 372.332 138.63 372.932 138.63ZM378.091 139.89V133.626H379.627V134.67H379.687C379.815 134.334 380.015 134.054 380.287 133.83C380.567 133.598 380.951 133.482 381.439 133.482C382.087 133.482 382.583 133.694 382.927 134.118C383.271 134.542 383.443 135.146 383.443 135.93V139.89H381.907V136.086C381.907 135.638 381.827 135.302 381.667 135.078C381.507 134.854 381.243 134.742 380.875 134.742C380.715 134.742 380.559 134.766 380.407 134.814C380.263 134.854 380.131 134.918 380.011 135.006C379.899 135.086 379.807 135.19 379.735 135.318C379.663 135.438 379.627 135.582 379.627 135.75V139.89H378.091ZM391.366 132.918V139.89H389.782V132.918H387.406V131.514H393.742V132.918H391.366ZM394.404 139.89V133.626H395.94V134.922H396C396.04 134.754 396.1 134.594 396.18 134.442C396.268 134.282 396.38 134.142 396.516 134.022C396.652 133.902 396.812 133.806 396.996 133.734C397.188 133.662 397.408 133.626 397.656 133.626H397.992V135.078H397.512C396.992 135.078 396.6 135.154 396.336 135.306C396.072 135.458 395.94 135.706 395.94 136.05V139.89H394.404ZM403.594 139.89C403.258 139.89 402.99 139.794 402.79 139.602C402.598 139.402 402.478 139.138 402.43 138.81H402.358C402.254 139.218 402.042 139.526 401.722 139.734C401.402 139.934 401.006 140.034 400.534 140.034C399.894 140.034 399.402 139.866 399.058 139.53C398.714 139.194 398.542 138.746 398.542 138.186C398.542 137.538 398.774 137.058 399.238 136.746C399.702 136.426 400.362 136.266 401.218 136.266H402.286V135.81C402.286 135.458 402.194 135.186 402.01 134.994C401.826 134.802 401.53 134.706 401.122 134.706C400.762 134.706 400.47 134.786 400.246 134.946C400.03 135.098 399.846 135.282 399.694 135.498L398.782 134.682C399.014 134.322 399.322 134.034 399.706 133.818C400.09 133.594 400.598 133.482 401.23 133.482C402.078 133.482 402.722 133.674 403.162 134.058C403.602 134.442 403.822 134.994 403.822 135.714V138.666H404.446V139.89H403.594ZM401.05 138.918C401.394 138.918 401.686 138.842 401.926 138.69C402.166 138.538 402.286 138.314 402.286 138.018V137.19H401.302C400.502 137.19 400.102 137.446 400.102 137.958V138.162C400.102 138.418 400.182 138.61 400.342 138.738C400.51 138.858 400.746 138.918 401.05 138.918ZM408.161 140.034C407.697 140.034 407.285 139.958 406.925 139.806C406.565 139.654 406.261 139.434 406.013 139.146C405.773 138.858 405.589 138.514 405.461 138.114C405.333 137.706 405.269 137.25 405.269 136.746C405.269 136.242 405.333 135.79 405.461 135.39C405.589 134.99 405.773 134.65 406.013 134.37C406.261 134.082 406.565 133.862 406.925 133.71C407.285 133.558 407.697 133.482 408.161 133.482C408.793 133.482 409.313 133.622 409.721 133.902C410.137 134.182 410.437 134.57 410.621 135.066L409.361 135.63C409.289 135.366 409.153 135.15 408.953 134.982C408.761 134.806 408.497 134.718 408.161 134.718C407.729 134.718 407.405 134.854 407.189 135.126C406.981 135.398 406.877 135.754 406.877 136.194V137.334C406.877 137.774 406.981 138.13 407.189 138.402C407.405 138.666 407.729 138.798 408.161 138.798C408.529 138.798 408.813 138.706 409.013 138.522C409.213 138.33 409.369 138.094 409.481 137.814L410.657 138.378C410.449 138.93 410.133 139.346 409.709 139.626C409.285 139.898 408.769 140.034 408.161 140.034ZM411.841 131.01H413.377V136.362H413.437L414.265 135.234L415.669 133.626H417.409L415.249 136.05L417.637 139.89H415.813L414.205 137.082L413.377 137.982V139.89H411.841V131.01Z" fill="#6DD47E"/>
<g opacity="0.7">
<path d="M43.804 163.902V168.511C43.804 168.885 43.815 169.219 43.837 169.512C43.859 169.805 43.9177 170.058 44.013 170.271C44.1083 170.476 44.255 170.634 44.453 170.744C44.6583 170.854 44.9407 170.909 45.3 170.909C45.6593 170.909 45.938 170.854 46.136 170.744C46.3413 170.634 46.4917 170.476 46.587 170.271C46.6823 170.058 46.741 169.805 46.763 169.512C46.785 169.219 46.796 168.885 46.796 168.511V163.902H47.72V168.291C47.72 168.863 47.6907 169.362 47.632 169.787C47.5807 170.212 47.467 170.568 47.291 170.854C47.1223 171.14 46.8767 171.356 46.554 171.503C46.2387 171.642 45.8207 171.712 45.3 171.712C44.7793 171.712 44.3577 171.642 44.035 171.503C43.7197 171.356 43.474 171.14 43.298 170.854C43.1293 170.568 43.0157 170.212 42.957 169.787C42.9057 169.362 42.88 168.863 42.88 168.291V163.902H43.804ZM49.6407 165.904H50.5207V166.828H50.5647C50.9314 166.124 51.5144 165.772 52.3137 165.772C53.0104 165.772 53.553 166.032 53.9417 166.553C54.3377 167.074 54.5357 167.803 54.5357 168.742C54.5357 169.681 54.3377 170.41 53.9417 170.931C53.553 171.452 53.0104 171.712 52.3137 171.712C51.5144 171.712 50.9314 171.36 50.5647 170.656H50.5207V173.78H49.6407V165.904ZM51.9727 170.931C52.486 170.931 52.882 170.777 53.1607 170.469C53.4467 170.154 53.5897 169.739 53.5897 169.226V168.258C53.5897 167.745 53.4467 167.334 53.1607 167.026C52.882 166.711 52.486 166.553 51.9727 166.553C51.7747 166.553 51.5877 166.579 51.4117 166.63C51.2357 166.681 51.0817 166.758 50.9497 166.861C50.8177 166.956 50.7114 167.077 50.6307 167.224C50.5574 167.363 50.5207 167.528 50.5207 167.719V169.765C50.5207 169.956 50.5574 170.124 50.6307 170.271C50.7114 170.41 50.8177 170.531 50.9497 170.634C51.0817 170.729 51.2357 170.803 51.4117 170.854C51.5877 170.905 51.7747 170.931 51.9727 170.931ZM59.8664 170.656H59.8224C59.4557 171.36 58.8727 171.712 58.0734 171.712C57.3767 171.712 56.8304 171.452 56.4344 170.931C56.0457 170.41 55.8514 169.681 55.8514 168.742C55.8514 167.803 56.0457 167.074 56.4344 166.553C56.8304 166.032 57.3767 165.772 58.0734 165.772C58.8727 165.772 59.4557 166.124 59.8224 166.828H59.8664V163.44H60.7464V171.58H59.8664V170.656ZM58.4144 170.931C58.6124 170.931 58.7994 170.905 58.9754 170.854C59.1514 170.803 59.3054 170.729 59.4374 170.634C59.5694 170.531 59.6721 170.41 59.7454 170.271C59.8261 170.124 59.8664 169.956 59.8664 169.765V167.719C59.8664 167.528 59.8261 167.363 59.7454 167.224C59.6721 167.077 59.5694 166.956 59.4374 166.861C59.3054 166.758 59.1514 166.681 58.9754 166.63C58.7994 166.579 58.6124 166.553 58.4144 166.553C57.9011 166.553 57.5014 166.711 57.2154 167.026C56.9367 167.334 56.7974 167.745 56.7974 168.258V169.226C56.7974 169.739 56.9367 170.154 57.2154 170.469C57.5014 170.777 57.9011 170.931 58.4144 170.931ZM67.2321 171.58C66.8874 171.58 66.6418 171.492 66.4951 171.316C66.3484 171.14 66.2568 170.92 66.2201 170.656H66.1651C66.0404 170.986 65.8388 171.246 65.5601 171.437C65.2888 171.62 64.9221 171.712 64.4601 171.712C63.8661 171.712 63.3931 171.558 63.0411 171.25C62.6891 170.942 62.5131 170.52 62.5131 169.985C62.5131 169.457 62.7038 169.05 63.0851 168.764C63.4738 168.478 64.0971 168.335 64.9551 168.335H66.1651V167.774C66.1651 167.356 66.0478 167.044 65.8131 166.839C65.5784 166.626 65.2448 166.52 64.8121 166.52C64.4308 166.52 64.1191 166.597 63.8771 166.751C63.6351 166.898 63.4408 167.099 63.2941 167.356L62.7001 166.916C62.7734 166.769 62.8724 166.626 62.9971 166.487C63.1218 166.348 63.2758 166.227 63.4591 166.124C63.6424 166.014 63.8514 165.93 64.0861 165.871C64.3208 165.805 64.5811 165.772 64.8671 165.772C65.5344 165.772 66.0624 165.941 66.4511 166.278C66.8471 166.615 67.0451 167.085 67.0451 167.686V170.81H67.8371V171.58H67.2321ZM64.6141 170.975C64.8414 170.975 65.0468 170.949 65.2301 170.898C65.4208 170.839 65.5858 170.766 65.7251 170.678C65.8644 170.583 65.9708 170.473 66.0441 170.348C66.1248 170.216 66.1651 170.077 66.1651 169.93V168.995H64.9551C64.4271 168.995 64.0421 169.068 63.8001 169.215C63.5581 169.362 63.4371 169.574 63.4371 169.853V170.084C63.4371 170.377 63.5398 170.601 63.7451 170.755C63.9578 170.902 64.2474 170.975 64.6141 170.975ZM71.9578 171.58C71.5251 171.58 71.2061 171.459 71.0008 171.217C70.8028 170.975 70.7038 170.663 70.7038 170.282V166.652H68.8118V165.904H70.2198C70.4105 165.904 70.5425 165.867 70.6158 165.794C70.6965 165.713 70.7368 165.578 70.7368 165.387V163.902H71.5838V165.904H74.1688V166.652H71.5838V170.832H74.1688V171.58H71.9578ZM78.3775 171.712C77.9668 171.712 77.5965 171.642 77.2665 171.503C76.9438 171.364 76.6652 171.166 76.4305 170.909C76.2032 170.645 76.0272 170.333 75.9025 169.974C75.7778 169.607 75.7155 169.2 75.7155 168.753C75.7155 168.298 75.7778 167.888 75.9025 167.521C76.0345 167.154 76.2142 166.843 76.4415 166.586C76.6688 166.322 76.9402 166.12 77.2555 165.981C77.5782 165.842 77.9338 165.772 78.3225 165.772C78.7038 165.772 79.0485 165.842 79.3565 165.981C79.6718 166.12 79.9395 166.315 80.1595 166.564C80.3795 166.806 80.5482 167.096 80.6655 167.433C80.7828 167.77 80.8415 168.141 80.8415 168.544V168.962H76.6395V169.226C76.6395 169.475 76.6798 169.706 76.7605 169.919C76.8412 170.132 76.9548 170.315 77.1015 170.469C77.2555 170.623 77.4388 170.744 77.6515 170.832C77.8715 170.913 78.1135 170.953 78.3775 170.953C78.7588 170.953 79.0888 170.865 79.3675 170.689C79.6462 170.513 79.8588 170.271 80.0055 169.963L80.6545 170.403C80.4858 170.784 80.2035 171.1 79.8075 171.349C79.4188 171.591 78.9422 171.712 78.3775 171.712ZM78.3225 166.498C78.0805 166.498 77.8568 166.542 77.6515 166.63C77.4462 166.718 77.2665 166.839 77.1125 166.993C76.9658 167.147 76.8485 167.33 76.7605 167.543C76.6798 167.748 76.6395 167.976 76.6395 168.225V168.302H79.8955V168.181C79.8955 167.932 79.8552 167.704 79.7745 167.499C79.7012 167.294 79.5948 167.118 79.4555 166.971C79.3235 166.817 79.1585 166.7 78.9605 166.619C78.7698 166.538 78.5572 166.498 78.3225 166.498ZM86.2492 170.656H86.2052C85.8386 171.36 85.2556 171.712 84.4562 171.712C83.7596 171.712 83.2132 171.452 82.8172 170.931C82.4286 170.41 82.2342 169.681 82.2342 168.742C82.2342 167.803 82.4286 167.074 82.8172 166.553C83.2132 166.032 83.7596 165.772 84.4562 165.772C85.2556 165.772 85.8386 166.124 86.2052 166.828H86.2492V163.44H87.1292V171.58H86.2492V170.656ZM84.7972 170.931C84.9952 170.931 85.1822 170.905 85.3582 170.854C85.5342 170.803 85.6882 170.729 85.8202 170.634C85.9522 170.531 86.0549 170.41 86.1282 170.271C86.2089 170.124 86.2492 169.956 86.2492 169.765V167.719C86.2492 167.528 86.2089 167.363 86.1282 167.224C86.0549 167.077 85.9522 166.956 85.8202 166.861C85.6882 166.758 85.5342 166.681 85.3582 166.63C85.1822 166.579 84.9952 166.553 84.7972 166.553C84.2839 166.553 83.8842 166.711 83.5982 167.026C83.3196 167.334 83.1802 167.745 83.1802 168.258V169.226C83.1802 169.739 83.3196 170.154 83.5982 170.469C83.8842 170.777 84.2839 170.931 84.7972 170.931ZM100.673 171.58H95.5466V170.634L98.1096 168.324C98.4836 167.987 98.7916 167.642 99.0336 167.29C99.2756 166.931 99.3966 166.553 99.3966 166.157V166.025C99.3966 165.563 99.2756 165.207 99.0336 164.958C98.7916 164.701 98.4323 164.573 97.9556 164.573C97.4863 164.573 97.1233 164.694 96.8666 164.936C96.6173 165.171 96.4303 165.486 96.3056 165.882L95.4806 165.574C95.554 165.347 95.653 165.127 95.7776 164.914C95.9096 164.694 96.0746 164.5 96.2726 164.331C96.4706 164.162 96.709 164.027 96.9876 163.924C97.2736 163.821 97.6036 163.77 97.9776 163.77C98.359 163.77 98.6963 163.825 98.9896 163.935C99.2903 164.045 99.5396 164.199 99.7376 164.397C99.943 164.595 100.097 164.83 100.2 165.101C100.31 165.372 100.365 165.669 100.365 165.992C100.365 166.285 100.321 166.56 100.233 166.817C100.152 167.074 100.035 167.319 99.8806 167.554C99.734 167.789 99.5543 168.02 99.3416 168.247C99.1363 168.467 98.9053 168.687 98.6486 168.907L96.5036 170.777H100.673V171.58ZM109.035 163.44H109.915V166.828H109.959C110.018 166.689 110.091 166.557 110.179 166.432C110.267 166.3 110.373 166.186 110.498 166.091C110.63 165.996 110.784 165.919 110.96 165.86C111.136 165.801 111.341 165.772 111.576 165.772C112.17 165.772 112.647 165.963 113.006 166.344C113.365 166.718 113.545 167.25 113.545 167.939V171.58H112.665V168.093C112.665 167.572 112.551 167.187 112.324 166.938C112.097 166.681 111.763 166.553 111.323 166.553C111.147 166.553 110.975 166.575 110.806 166.619C110.637 166.663 110.487 166.729 110.355 166.817C110.223 166.905 110.117 167.019 110.036 167.158C109.955 167.297 109.915 167.459 109.915 167.642V171.58H109.035V163.44ZM117.853 171.712C117.457 171.712 117.097 171.642 116.775 171.503C116.459 171.364 116.188 171.166 115.961 170.909C115.741 170.645 115.572 170.333 115.455 169.974C115.337 169.607 115.279 169.197 115.279 168.742C115.279 168.295 115.337 167.888 115.455 167.521C115.572 167.154 115.741 166.843 115.961 166.586C116.188 166.322 116.459 166.12 116.775 165.981C117.097 165.842 117.457 165.772 117.853 165.772C118.249 165.772 118.604 165.842 118.92 165.981C119.242 166.12 119.514 166.322 119.734 166.586C119.961 166.843 120.133 167.154 120.251 167.521C120.368 167.888 120.427 168.295 120.427 168.742C120.427 169.197 120.368 169.607 120.251 169.974C120.133 170.333 119.961 170.645 119.734 170.909C119.514 171.166 119.242 171.364 118.92 171.503C118.604 171.642 118.249 171.712 117.853 171.712ZM117.853 170.953C118.344 170.953 118.74 170.806 119.041 170.513C119.341 170.22 119.492 169.765 119.492 169.149V168.335C119.492 167.719 119.341 167.264 119.041 166.971C118.74 166.678 118.344 166.531 117.853 166.531C117.361 166.531 116.965 166.678 116.665 166.971C116.364 167.264 116.214 167.719 116.214 168.335V169.149C116.214 169.765 116.364 170.22 116.665 170.513C116.965 170.806 117.361 170.953 117.853 170.953ZM125.79 170.656H125.746C125.688 170.795 125.614 170.931 125.526 171.063C125.438 171.188 125.328 171.298 125.196 171.393C125.072 171.488 124.921 171.565 124.745 171.624C124.569 171.683 124.364 171.712 124.129 171.712C123.535 171.712 123.059 171.525 122.699 171.151C122.34 170.77 122.16 170.234 122.16 169.545V165.904H123.04V169.391C123.04 169.912 123.154 170.3 123.381 170.557C123.609 170.806 123.942 170.931 124.382 170.931C124.558 170.931 124.731 170.909 124.899 170.865C125.068 170.821 125.218 170.755 125.35 170.667C125.482 170.579 125.589 170.469 125.669 170.337C125.75 170.198 125.79 170.033 125.79 169.842V165.904H126.67V171.58H125.79V170.656ZM128.591 170.832H130.252V166.652H128.591V165.904H131.132V167.334H131.187C131.304 166.887 131.524 166.538 131.847 166.289C132.177 166.032 132.595 165.904 133.101 165.904H133.893V166.784H132.826C132.32 166.784 131.909 166.931 131.594 167.224C131.286 167.517 131.132 167.902 131.132 168.379V170.832H133.332V171.58H128.591V170.832ZM137.706 171.712C137.112 171.712 136.599 171.613 136.166 171.415C135.741 171.21 135.378 170.938 135.077 170.601L135.671 170.084C135.942 170.37 136.239 170.59 136.562 170.744C136.885 170.898 137.273 170.975 137.728 170.975C138.168 170.975 138.527 170.898 138.806 170.744C139.092 170.583 139.235 170.333 139.235 169.996C139.235 169.849 139.206 169.728 139.147 169.633C139.096 169.53 139.022 169.45 138.927 169.391C138.832 169.332 138.725 169.288 138.608 169.259C138.491 169.222 138.366 169.193 138.234 169.171L137.343 169.039C137.145 169.01 136.929 168.969 136.694 168.918C136.467 168.867 136.258 168.786 136.067 168.676C135.876 168.559 135.715 168.405 135.583 168.214C135.458 168.023 135.396 167.774 135.396 167.466C135.396 167.18 135.451 166.934 135.561 166.729C135.678 166.516 135.84 166.34 136.045 166.201C136.25 166.054 136.492 165.948 136.771 165.882C137.05 165.809 137.354 165.772 137.684 165.772C138.197 165.772 138.641 165.853 139.015 166.014C139.396 166.175 139.723 166.399 139.994 166.685L139.422 167.224C139.356 167.143 139.272 167.063 139.169 166.982C139.074 166.894 138.953 166.817 138.806 166.751C138.667 166.678 138.502 166.619 138.311 166.575C138.12 166.531 137.9 166.509 137.651 166.509C137.204 166.509 136.859 166.586 136.617 166.74C136.382 166.894 136.265 167.118 136.265 167.411C136.265 167.558 136.291 167.682 136.342 167.785C136.401 167.88 136.478 167.957 136.573 168.016C136.668 168.075 136.775 168.122 136.892 168.159C137.017 168.188 137.141 168.214 137.266 168.236L138.157 168.368C138.362 168.397 138.579 168.438 138.806 168.489C139.033 168.54 139.242 168.625 139.433 168.742C139.624 168.852 139.781 169.002 139.906 169.193C140.038 169.384 140.104 169.633 140.104 169.941C140.104 170.506 139.884 170.942 139.444 171.25C139.011 171.558 138.432 171.712 137.706 171.712ZM152.976 171.58C152.632 171.58 152.386 171.492 152.239 171.316C152.093 171.14 152.001 170.92 151.964 170.656H151.909C151.785 170.986 151.583 171.246 151.304 171.437C151.033 171.62 150.666 171.712 150.204 171.712C149.61 171.712 149.137 171.558 148.785 171.25C148.433 170.942 148.257 170.52 148.257 169.985C148.257 169.457 148.448 169.05 148.829 168.764C149.218 168.478 149.841 168.335 150.699 168.335H151.909V167.774C151.909 167.356 151.792 167.044 151.557 166.839C151.323 166.626 150.989 166.52 150.556 166.52C150.175 166.52 149.863 166.597 149.621 166.751C149.379 166.898 149.185 167.099 149.038 167.356L148.444 166.916C148.518 166.769 148.617 166.626 148.741 166.487C148.866 166.348 149.02 166.227 149.203 166.124C149.387 166.014 149.596 165.93 149.83 165.871C150.065 165.805 150.325 165.772 150.611 165.772C151.279 165.772 151.807 165.941 152.195 166.278C152.591 166.615 152.789 167.085 152.789 167.686V170.81H153.581V171.58H152.976ZM150.358 170.975C150.586 170.975 150.791 170.949 150.974 170.898C151.165 170.839 151.33 170.766 151.469 170.678C151.609 170.583 151.715 170.473 151.788 170.348C151.869 170.216 151.909 170.077 151.909 169.93V168.995H150.699C150.171 168.995 149.786 169.068 149.544 169.215C149.302 169.362 149.181 169.574 149.181 169.853V170.084C149.181 170.377 149.284 170.601 149.489 170.755C149.702 170.902 149.992 170.975 150.358 170.975ZM160.298 172.229C160.298 172.801 160.06 173.223 159.583 173.494C159.106 173.773 158.391 173.912 157.438 173.912C156.521 173.912 155.861 173.791 155.458 173.549C155.062 173.307 154.864 172.959 154.864 172.504C154.864 172.196 154.945 171.958 155.106 171.789C155.267 171.62 155.495 171.496 155.788 171.415V171.283C155.627 171.202 155.502 171.1 155.414 170.975C155.326 170.85 155.282 170.693 155.282 170.502C155.282 170.209 155.377 169.989 155.568 169.842C155.766 169.695 156.012 169.585 156.305 169.512V169.468C155.953 169.314 155.678 169.087 155.48 168.786C155.289 168.485 155.194 168.133 155.194 167.73C155.194 167.444 155.245 167.18 155.348 166.938C155.451 166.696 155.597 166.491 155.788 166.322C155.986 166.146 156.221 166.01 156.492 165.915C156.763 165.82 157.064 165.772 157.394 165.772C157.819 165.772 158.193 165.849 158.516 166.003V165.904C158.516 165.684 158.567 165.501 158.67 165.354C158.773 165.207 158.949 165.134 159.198 165.134H160.243V165.904H158.967V166.289C159.172 166.465 159.33 166.674 159.44 166.916C159.55 167.158 159.605 167.429 159.605 167.73C159.605 168.016 159.55 168.28 159.44 168.522C159.337 168.764 159.191 168.973 159 169.149C158.809 169.318 158.575 169.45 158.296 169.545C158.025 169.64 157.724 169.688 157.394 169.688C157.299 169.688 157.207 169.684 157.119 169.677C157.031 169.67 156.943 169.659 156.855 169.644C156.767 169.659 156.675 169.684 156.58 169.721C156.485 169.75 156.397 169.794 156.316 169.853C156.235 169.904 156.169 169.967 156.118 170.04C156.067 170.113 156.041 170.198 156.041 170.293C156.041 170.462 156.125 170.575 156.294 170.634C156.463 170.685 156.683 170.711 156.954 170.711H158.208C158.941 170.711 159.473 170.85 159.803 171.129C160.133 171.4 160.298 171.767 160.298 172.229ZM159.473 172.273C159.473 172.046 159.381 171.862 159.198 171.723C159.015 171.591 158.696 171.525 158.241 171.525H156.272C155.891 171.679 155.7 171.936 155.7 172.295C155.7 172.544 155.799 172.757 155.997 172.933C156.195 173.116 156.525 173.208 156.987 173.208H157.845C158.358 173.208 158.758 173.127 159.044 172.966C159.33 172.812 159.473 172.581 159.473 172.273ZM157.394 169.006C157.834 169.006 158.157 168.903 158.362 168.698C158.575 168.493 158.681 168.221 158.681 167.884V167.565C158.681 167.228 158.575 166.96 158.362 166.762C158.157 166.557 157.834 166.454 157.394 166.454C156.954 166.454 156.631 166.557 156.426 166.762C156.221 166.96 156.118 167.228 156.118 167.565V167.884C156.118 168.221 156.221 168.493 156.426 168.698C156.631 168.903 156.954 169.006 157.394 169.006ZM164.023 171.712C163.627 171.712 163.267 171.642 162.945 171.503C162.629 171.364 162.358 171.166 162.131 170.909C161.911 170.645 161.742 170.333 161.625 169.974C161.507 169.607 161.449 169.197 161.449 168.742C161.449 168.295 161.507 167.888 161.625 167.521C161.742 167.154 161.911 166.843 162.131 166.586C162.358 166.322 162.629 166.12 162.945 165.981C163.267 165.842 163.627 165.772 164.023 165.772C164.419 165.772 164.774 165.842 165.09 165.981C165.412 166.12 165.684 166.322 165.904 166.586C166.131 166.843 166.303 167.154 166.421 167.521C166.538 167.888 166.597 168.295 166.597 168.742C166.597 169.197 166.538 169.607 166.421 169.974C166.303 170.333 166.131 170.645 165.904 170.909C165.684 171.166 165.412 171.364 165.09 171.503C164.774 171.642 164.419 171.712 164.023 171.712ZM164.023 170.953C164.514 170.953 164.91 170.806 165.211 170.513C165.511 170.22 165.662 169.765 165.662 169.149V168.335C165.662 167.719 165.511 167.264 165.211 166.971C164.91 166.678 164.514 166.531 164.023 166.531C163.531 166.531 163.135 166.678 162.835 166.971C162.534 167.264 162.384 167.719 162.384 168.335V169.149C162.384 169.765 162.534 170.22 162.835 170.513C163.135 170.806 163.531 170.953 164.023 170.953Z" fill="#999999"/>
</g>
</g>
<defs>
<filter id="filter0_d_27_307" x="0" y="0" width="474.66" height="223.17" filterUnits="userSpaceOnUse" color-interpolation-filters="sRGB">
<feFlood flood-opacity="0" result="BackgroundImageFix"/>
<feColorMatrix in="SourceAlpha" type="matrix" values="0 0 0 0 0 0 0 0 0 0 0 0 0 0 0 0 0 0 127 0" result="hardAlpha"/>
<feOffset dy="4"/>
<feGaussianBlur stdDeviation="8"/>
<feComposite in2="hardAlpha" operator="out"/>
<feColorMatrix type="matrix" values="0 0 0 0 0 0 0 0 0 0 0 0 0 0 0 0 0 0 0.4 0"/>
<feBlend mode="normal" in2="BackgroundImageFix" result="effect1_dropShadow_27_307"/>
<feBlend mode="normal" in="SourceGraphic" in2="effect1_dropShadow_27_307" result="shape"/>
</filter>
<filter id="filter1_d_27_307" x="32" y="82.3899" width="273.92" height="32" filterUnits="userSpaceOnUse" color-interpolation-filters="sRGB">
<feFlood flood-opacity="0" result="BackgroundImageFix"/>
<feColorMatrix in="SourceAlpha" type="matrix" values="0 0 0 0 0 0 0 0 0 0 0 0 0 0 0 0 0 0 127 0" result="hardAlpha"/>
<feOffset/>
<feGaussianBlur stdDeviation="5"/>
<feComposite in2="hardAlpha" operator="out"/>
<feColorMatrix type="matrix" values="0 0 0 0 1 0 0 0 0 0.85098 0 0 0 0 0.239216 0 0 0 0.3 0"/>
<feBlend mode="normal" in2="BackgroundImageFix" result="effect1_dropShadow_27_307"/>
<feBlend mode="normal" in="SourceGraphic" in2="effect1_dropShadow_27_307" result="shape"/>
</filter>
<linearGradient id="paint0_linear_27_307" x1="79.4458" y1="-52.2161" x2="399.025" y2="263.529" gradientUnits="userSpaceOnUse">
<stop stop-color="#1A1A1A"/>
<stop offset="1" stop-color="#2A2A2A"/>
</linearGradient>
<linearGradient id="paint1_linear_27_307" x1="42" y1="98.3899" x2="295.92" y2="98.3899" gradientUnits="userSpaceOnUse">
<stop stop-color="#FFD93D"/>
<stop offset="1" stop-color="#FFC700"/>
</linearGradient>
<clipPath id="clip0_27_307">
<rect width="438.66" height="187.17" fill="white" transform="translate(18 14)"/>
</clipPath>
<clipPath id="clip1_27_307">
<rect width="187.17" height="187.17" fill="white" transform="translate(18 14)"/>
</clipPath>
<clipPath id="clip2_27_307">
<path d="M42 98.2436C42 95.0107 44.6208 92.3899 47.8537 92.3899H426.822C430.046 92.3899 432.66 95.0036 432.66 98.2277C432.66 101.631 429.901 104.39 426.498 104.39H48.1463C44.7518 104.39 42 101.638 42 98.2436Z" fill="white"/>
</clipPath>
</defs>
</svg>
